<svg width="51" height="50" viewBox="0 0 51 50" fill="none" xmlns="http://www.w3.org/2000/svg">
<path d="M18.9097 1.14648H34.1939L49.854 16.8057V42.4043C49.854 45.5691 47.2883 48.1348 44.1236 48.1348H18.9097C15.7451 48.1345 13.1802 45.5689 13.1802 42.4043V6.87598C13.1804 3.71154 15.7453 1.14672 18.9097 1.14648Z" fill="#EEF1F7" stroke="#EBEBEB" stroke-width="2.29213"/>
<rect y="21.7753" width="34.382" height="20.0562" rx="4.01124" fill="#D82042"/>
<path d="M5.6983 36.674V27.0887H9.11494C9.86067 27.0887 10.4785 27.2245 10.9683 27.4959C11.4582 27.7674 11.8248 28.1387 12.0682 28.6098C12.3116 29.0779 12.4333 29.6052 12.4333 30.1918C12.4333 30.7815 12.31 31.312 12.0635 31.7831C11.8202 32.2511 11.452 32.6224 10.959 32.897C10.4691 33.1685 9.85287 33.3042 9.11025 33.3042H6.76074V32.078H8.97921C9.45036 32.078 9.83258 31.9968 10.1259 31.8346C10.4192 31.6692 10.6345 31.4446 10.7718 31.1606C10.9091 30.8767 10.9777 30.5537 10.9777 30.1918C10.9777 29.8299 10.9091 29.5085 10.7718 29.2277C10.6345 28.9468 10.4176 28.7269 10.1212 28.5677C9.8279 28.4086 9.441 28.329 8.96048 28.329H7.14452V36.674H5.6983Z" fill="white"/>
<path d="M17.2318 36.674H14.1287V27.0887H17.3301C18.2692 27.0887 19.0758 27.2806 19.7498 27.6644C20.4238 28.0451 20.9401 28.5927 21.299 29.3072C21.6609 30.0186 21.8419 30.872 21.8419 31.8673C21.8419 32.8658 21.6594 33.7239 21.2943 34.4415C20.9323 35.1592 20.4082 35.7115 19.7217 36.0984C19.0353 36.4821 18.2053 36.674 17.2318 36.674ZM15.5749 35.4104H17.1522C17.8823 35.4104 18.4892 35.2731 18.9729 34.9985C19.4565 34.7208 19.8184 34.3198 20.0587 33.7956C20.2989 33.2683 20.4191 32.6256 20.4191 31.8673C20.4191 31.1154 20.2989 30.4773 20.0587 29.9531C19.8216 29.4289 19.4674 29.0311 18.9963 28.7596C18.5251 28.4882 17.9401 28.3524 17.2411 28.3524H15.5749V35.4104Z" fill="white"/>
<path d="M23.6403 36.674V27.0887H29.5843V28.3337H25.0865V31.2542H29.1584V32.4945H25.0865V36.674H23.6403Z" fill="white"/>
</svg>
