<svg width="103" height="62" viewBox="0 0 103 62" fill="none" xmlns="http://www.w3.org/2000/svg">
<mask id="mask0_39_549" style="mask-type:luminance" maskUnits="userSpaceOnUse" x="0" y="0" width="103" height="62">
<path d="M103 0H0V61.9722H103V0Z" fill="white"/>
</mask>
<g mask="url(#mask0_39_549)">
<path fill-rule="evenodd" clip-rule="evenodd" d="M6.50209 59.6325C6.63915 59.396 6.5772 59.1874 6.31059 59.0129L5.8412 58.6749C5.61777 58.5192 5.41686 58.5736 5.22913 58.8382C5.18968 58.9116 5.12585 59.0129 5.0376 59.135C4.95687 59.2645 4.84609 59.396 4.70529 59.5311C4.43303 59.8371 4.01999 59.9968 3.46422 60.0118C2.88783 59.9986 2.44284 59.7958 2.12178 59.409C1.80636 59.026 1.6524 58.5905 1.6524 58.108V54.7865C1.6524 54.2815 1.80824 53.8404 2.12178 53.4649C2.44284 53.093 2.8897 52.8977 3.46422 52.8828C3.74961 52.8828 4.00121 52.9203 4.21712 53.0047C4.42178 53.1118 4.59263 53.2339 4.72594 53.3633C4.86674 53.4854 4.97752 53.6169 5.05827 53.7596C5.14275 53.8816 5.19908 53.9924 5.22723 54.0974C5.39998 54.3266 5.60462 54.3623 5.83932 54.199L6.33124 53.844C6.45892 53.7464 6.52837 53.6357 6.5434 53.506C6.5434 53.399 6.51522 53.3014 6.46267 53.2206C6.38756 52.9842 6.12658 52.6331 5.67785 52.1579C5.45818 51.9534 5.16528 51.7712 4.79729 51.6248C4.42365 51.4821 3.98056 51.4126 3.46422 51.4126C2.45036 51.4258 1.63363 51.7637 1.02155 52.4227C0.392575 53.0779 0.0771484 53.8685 0.0771484 54.7997V58.1041C0.0771484 59.0223 0.392575 59.8072 1.0178 60.4605C1.63363 61.1251 2.44661 61.4668 3.46047 61.48C3.96179 61.4668 4.40113 61.3861 4.77476 61.2358C5.14275 61.0931 5.44316 60.9223 5.67597 60.7176C5.9238 60.5093 6.11343 60.2991 6.24861 60.0905C6.36879 59.8991 6.45327 59.7452 6.50022 59.6306L6.50209 59.6325ZM30.7861 55.0099C30.7731 54.0769 30.465 53.2865 29.8643 52.6331C29.2635 51.9759 28.443 51.6379 27.401 51.623C26.3946 51.636 25.5779 51.974 24.9583 52.6331C24.3293 53.2883 24.0139 54.0787 24.0139 55.0099V58.3145C24.0139 59.2345 24.3274 60.0174 24.9583 60.6707C25.576 61.3355 26.3927 61.6772 27.401 61.6902C28.2627 61.6772 28.9593 61.4782 29.4963 61.0913C29.7686 60.896 29.9939 60.697 30.1741 60.4962C30.3468 60.2877 30.4989 60.0812 30.6265 59.8859C30.6942 59.7884 30.7299 59.6814 30.7299 59.5593C30.7148 59.4447 30.6454 59.3358 30.5176 59.2419L30.0653 58.9041C29.9695 58.8233 29.8718 58.7895 29.7648 58.8026C29.6372 58.8158 29.532 58.8796 29.4531 58.9866C29.2841 59.2382 29.0364 59.501 28.7078 59.7809C28.3679 60.0587 27.9304 60.2051 27.3935 60.2202C26.8171 60.2069 26.3721 60.0043 26.0567 59.6137C25.743 59.2307 25.5873 58.7952 25.5873 58.3088V57.8038C25.5873 57.494 25.7393 57.34 26.0398 57.34H29.8812C30.4708 57.34 30.7712 57.034 30.7861 56.4237V55.0062V55.0099ZM29.2127 55.5151C29.2127 55.8211 29.0607 55.975 28.7604 55.975H26.0398C25.7393 55.975 25.5873 55.8211 25.5873 55.5151V55.0099C25.5873 54.4993 25.7469 54.0563 26.0604 53.6807C26.3758 53.3014 26.8245 53.1061 27.3992 53.093C27.9755 53.1061 28.4242 53.3014 28.7377 53.6807C29.0533 54.0563 29.2109 54.4993 29.2109 55.0099V55.5151H29.2127ZM54.7155 58.352C54.7004 57.3776 54.3681 56.6565 53.7109 56.1891C53.0632 55.7328 52.269 55.4888 51.3247 55.4607C51.2851 55.4737 51.0091 55.4042 50.5041 55.2484C50.2807 55.164 50.0985 55.0325 49.9521 54.8485C49.7682 54.6852 49.6799 54.456 49.6799 54.1633C49.6799 53.8948 49.7963 53.6169 50.0291 53.3201C50.2656 53.0274 50.6974 52.8753 51.3265 52.8602C51.8353 52.8602 52.2916 53.0555 52.7007 53.4422C52.9093 53.6263 53.1213 53.6469 53.3447 53.5042L53.8367 53.1456C54.077 52.9709 54.0978 52.7662 53.8968 52.5334C53.6208 52.2162 53.283 51.9496 52.8718 51.7261C52.4437 51.5308 51.931 51.4277 51.3265 51.4126C50.2844 51.4258 49.4997 51.7186 48.9683 52.2894C48.4352 52.8508 48.1667 53.4797 48.1667 54.1802C48.1948 55.8341 49.248 56.7523 51.3302 56.9382C51.3734 56.925 51.6739 56.9796 52.2351 57.1015C52.4718 57.1786 52.684 57.3174 52.8791 57.5203C53.052 57.7325 53.1403 58.0103 53.1403 58.3596C53.1403 58.7669 53.0031 59.1387 52.7309 59.4728C52.4549 59.8202 51.9893 59.9986 51.332 60.0118C50.8646 60.0118 50.4515 59.8728 50.0985 59.5931C49.755 59.3283 49.4696 59.0429 49.2331 58.7369C49.0885 58.5135 48.8894 58.4721 48.6435 58.6148L48.1703 58.9528C47.9337 59.1405 47.8906 59.3564 48.0389 59.5931C48.2867 60.0137 48.6792 60.4249 49.2123 60.8228C49.7456 61.234 50.4534 61.4537 51.3302 61.48C52.4117 61.4668 53.2453 61.1608 53.833 60.5637C54.4225 59.9798 54.7173 59.24 54.7173 58.3502L54.7155 58.352ZM78.8569 54.8034C78.8436 53.8703 78.5358 53.0761 77.935 52.4227C77.3342 51.7657 76.5137 51.4277 75.4716 51.4126C74.4653 51.4258 73.6485 51.7637 73.0289 52.4227C72.4 53.0779 72.0846 53.8703 72.0846 54.8034V60.8267C72.0846 61.1251 72.2328 61.2754 72.5333 61.2754H73.2073C73.5078 61.2754 73.656 61.1251 73.656 60.8267V57.5953C73.656 57.2856 73.8081 57.1317 74.1086 57.1317H76.8291C77.1296 57.1317 77.2816 57.2856 77.2816 57.5953V60.8267C77.2816 61.1251 77.4299 61.2754 77.7303 61.2754H78.4043C78.7048 61.2754 78.853 61.1251 78.853 60.8267V54.8034H78.8569ZM77.2835 55.3047C77.2835 55.6109 77.1314 55.7648 76.8309 55.7648H74.1104C73.8101 55.7648 73.658 55.6109 73.658 55.3047V54.7997C73.658 54.2891 73.8175 53.8459 74.131 53.4704C74.4466 53.0912 74.8953 52.8959 75.4697 52.8828C76.0462 52.8959 76.4949 53.0912 76.8085 53.4704C77.1239 53.8459 77.2816 54.2891 77.2816 54.7997V55.3047H77.2835ZM102.998 59.0411C102.998 58.4046 102.906 57.8921 102.719 57.5127C102.523 57.1505 102.302 56.882 102.043 56.7054C101.874 56.5515 101.874 56.407 102.043 56.2661C102.21 56.1646 102.407 55.9713 102.632 55.6784C102.861 55.3854 102.981 54.9537 102.996 54.3792C102.983 53.4365 102.668 52.7044 102.056 52.1899C101.406 51.6717 100.593 51.4126 99.6093 51.4126C98.601 51.4258 97.7862 51.7637 97.1666 52.4227C96.5377 53.0779 96.2221 53.8703 96.2221 54.8034V60.8267C96.2221 61.1251 96.3706 61.2754 96.671 61.2754H97.3468C97.6473 61.2754 97.7955 61.1251 97.7955 60.8267V57.5953C97.7955 57.2856 97.9476 57.1317 98.2481 57.1317H99.6093C100.186 57.1448 100.634 57.34 100.948 57.7174C101.263 58.0929 101.421 58.5361 101.421 59.0392V60.8246C101.421 61.1233 101.569 61.2735 101.87 61.2735H102.546C102.846 61.2735 102.995 61.1233 102.995 60.8246V59.0392L102.998 59.0411ZM101.425 54.3753C101.397 54.9537 101.168 55.3255 100.728 55.4963C100.3 55.6916 99.9265 55.7779 99.6111 55.7648H98.2499C97.9495 55.7648 97.7974 55.6109 97.7974 55.3047V54.7997C97.7974 54.2891 97.957 53.8459 98.2705 53.4704C98.5861 53.0912 99.0348 52.8959 99.6093 52.8828C100.118 52.8828 100.546 53.0011 100.888 53.2414C101.231 53.4891 101.408 53.8685 101.421 54.3753H101.425Z" fill="#FF6002"/>
<path fill-rule="evenodd" clip-rule="evenodd" d="M40.7897 0C17.5626 2.00334 0.0469971 10.3772 0.0469971 20.3524C0.0469971 31.8149 23.1615 41.1613 51.501 41.1613C79.8406 41.1613 102.955 31.8131 102.955 20.3524C102.955 10.3772 85.4393 2.00146 62.2124 0V0.959423C74.2361 2.40138 82.8615 7.83498 82.8615 12.2697C82.8615 17.9361 68.7743 22.5586 51.5028 22.5586C34.2313 22.5586 20.1441 17.9361 20.1441 12.2697C20.1441 7.83685 28.7676 2.65296 40.7934 1.21101V0H40.7897Z" fill="#FF6002"/>
<path fill-rule="evenodd" clip-rule="evenodd" d="M46.9894 2.46338C37.3633 3.20125 30.1046 6.28793 30.1046 9.96602C30.1046 14.1905 39.6838 17.6358 51.4278 17.6358C63.1718 17.6358 72.7511 14.1905 72.7511 9.96602C72.7511 6.2898 65.4926 3.20313 55.8663 2.46338V3.42281C60.8493 3.95415 64.4242 5.35292 64.4242 6.98637C64.4242 9.07419 58.5868 10.779 51.4278 10.779C44.2688 10.779 38.4315 9.07607 38.4315 6.98637C38.4315 5.35292 42.0064 3.95415 46.9894 3.42281V2.46338Z" fill="#FF6002"/>
<path fill-rule="evenodd" clip-rule="evenodd" d="M15.9517 60.8792C15.9517 60.68 15.856 60.5769 15.6664 60.5693H15.2383C15.0486 60.5769 14.9529 60.68 14.9529 60.8792V61.172C14.9529 61.3672 15.0486 61.4688 15.2383 61.4761H15.6664C15.856 61.4688 15.9517 61.3672 15.9517 61.172V60.8792Z" fill="#FF6002"/>
<path fill-rule="evenodd" clip-rule="evenodd" d="M40.0387 60.866C40.0387 60.667 39.9429 60.5637 39.7533 60.5562H39.3252C39.1356 60.5637 39.0398 60.667 39.0398 60.866V61.159C39.0398 61.3541 39.1356 61.4556 39.3252 61.4631H39.7533C39.9429 61.4556 40.0387 61.3541 40.0387 61.159V60.866Z" fill="#FF6002"/>
<path fill-rule="evenodd" clip-rule="evenodd" d="M63.9511 60.8924C63.9511 60.6934 63.8571 60.5901 63.6657 60.5825H63.2376C63.048 60.5901 62.9521 60.6934 62.9521 60.8924V61.1853C62.9521 61.3806 63.048 61.4819 63.2376 61.4895H63.6657C63.8553 61.4819 63.9511 61.3806 63.9511 61.1853V60.8924Z" fill="#FF6002"/>
<path fill-rule="evenodd" clip-rule="evenodd" d="M87.8859 60.8719C87.8859 60.6727 87.7901 60.5696 87.6005 60.562H87.1724C86.9828 60.5696 86.887 60.6727 86.887 60.8719V61.1646C86.887 61.3599 86.9828 61.4614 87.1724 61.4688H87.6005C87.7901 61.4614 87.8859 61.3599 87.8859 61.1646V60.8719Z" fill="#FF6002"/>
</g>
</svg>
